<mxfile host="Electron" modified="2023-04-28T15:20:44.781Z" agent="Mozilla/5.0 (Windows NT 10.0; Win64; x64) AppleWebKit/537.36 (KHTML, like Gecko) draw.io/21.1.2 Chrome/106.0.5249.199 Electron/21.4.3 Safari/537.36" etag="eLNmJbG5r0o--SwqpYXH" version="21.1.2" type="device">
  <diagram name="第 1 页" id="_-jHKvZz9BukLninsXsY">
    <mxGraphModel dx="1006" dy="493" grid="1" gridSize="10" guides="1" tooltips="1" connect="1" arrows="1" fold="1" page="1" pageScale="1" pageWidth="2339" pageHeight="3300" math="0" shadow="0">
      <root>
        <mxCell id="0" />
        <mxCell id="1" parent="0" />
        <mxCell id="zURV9CsW6-6Lo7girFdd-19" value="" style="edgeStyle=orthogonalEdgeStyle;rounded=0;orthogonalLoop=1;jettySize=auto;html=1;" edge="1" parent="1" source="zURV9CsW6-6Lo7girFdd-1" target="zURV9CsW6-6Lo7girFdd-3">
          <mxGeometry relative="1" as="geometry" />
        </mxCell>
        <mxCell id="zURV9CsW6-6Lo7girFdd-1" value="GPUcontroller" style="rounded=1;whiteSpace=wrap;html=1;" vertex="1" parent="1">
          <mxGeometry x="170" y="170" width="90" height="60" as="geometry" />
        </mxCell>
        <mxCell id="zURV9CsW6-6Lo7girFdd-2" value="SQL指纹设计，使用druid的提取SQL模板，SQL模板可以判断是否是Select语句&lt;br&gt;减轻接口重复解析判断的压力" style="rounded=0;whiteSpace=wrap;html=1;" vertex="1" parent="1">
          <mxGeometry x="10" y="10" width="460" height="60" as="geometry" />
        </mxCell>
        <mxCell id="zURV9CsW6-6Lo7girFdd-6" value="&amp;nbsp;不存在" style="edgeStyle=orthogonalEdgeStyle;rounded=0;orthogonalLoop=1;jettySize=auto;html=1;" edge="1" parent="1" source="zURV9CsW6-6Lo7girFdd-3" target="zURV9CsW6-6Lo7girFdd-5">
          <mxGeometry x="0.6924" relative="1" as="geometry">
            <Array as="points">
              <mxPoint x="510" y="200" />
            </Array>
            <mxPoint as="offset" />
          </mxGeometry>
        </mxCell>
        <mxCell id="zURV9CsW6-6Lo7girFdd-9" style="edgeStyle=orthogonalEdgeStyle;rounded=0;orthogonalLoop=1;jettySize=auto;html=1;" edge="1" parent="1" source="zURV9CsW6-6Lo7girFdd-3" target="zURV9CsW6-6Lo7girFdd-8">
          <mxGeometry relative="1" as="geometry" />
        </mxCell>
        <mxCell id="zURV9CsW6-6Lo7girFdd-11" value="存在" style="edgeLabel;html=1;align=center;verticalAlign=middle;resizable=0;points=[];" vertex="1" connectable="0" parent="zURV9CsW6-6Lo7girFdd-9">
          <mxGeometry x="0.4097" y="-3" relative="1" as="geometry">
            <mxPoint x="3" y="14" as="offset" />
          </mxGeometry>
        </mxCell>
        <mxCell id="zURV9CsW6-6Lo7girFdd-3" value="SQL模板提取，根据模板查询缓存" style="rounded=1;whiteSpace=wrap;html=1;" vertex="1" parent="1">
          <mxGeometry x="300" y="170" width="120" height="60" as="geometry" />
        </mxCell>
        <mxCell id="zURV9CsW6-6Lo7girFdd-21" value="" style="edgeStyle=orthogonalEdgeStyle;rounded=0;orthogonalLoop=1;jettySize=auto;html=1;" edge="1" parent="1" source="zURV9CsW6-6Lo7girFdd-5" target="zURV9CsW6-6Lo7girFdd-15">
          <mxGeometry relative="1" as="geometry" />
        </mxCell>
        <mxCell id="zURV9CsW6-6Lo7girFdd-5" value="CK解析模板语法树，构建指纹" style="rounded=1;whiteSpace=wrap;html=1;" vertex="1" parent="1">
          <mxGeometry x="450" y="90" width="120" height="60" as="geometry" />
        </mxCell>
        <mxCell id="zURV9CsW6-6Lo7girFdd-8" value="使用缓存的GPU判断结果" style="rounded=1;whiteSpace=wrap;html=1;" vertex="1" parent="1">
          <mxGeometry x="450" y="250" width="120" height="60" as="geometry" />
        </mxCell>
        <mxCell id="zURV9CsW6-6Lo7girFdd-13" style="edgeStyle=orthogonalEdgeStyle;rounded=0;orthogonalLoop=1;jettySize=auto;html=1;entryX=0;entryY=0.5;entryDx=0;entryDy=0;" edge="1" parent="1" source="zURV9CsW6-6Lo7girFdd-12" target="zURV9CsW6-6Lo7girFdd-1">
          <mxGeometry relative="1" as="geometry" />
        </mxCell>
        <mxCell id="zURV9CsW6-6Lo7girFdd-12" value="发起请求，传入SQL语句" style="rounded=1;whiteSpace=wrap;html=1;" vertex="1" parent="1">
          <mxGeometry y="170" width="150" height="60" as="geometry" />
        </mxCell>
        <mxCell id="zURV9CsW6-6Lo7girFdd-14" value="&lt;pre&gt;&lt;span style=&quot;color: rgba(0, 0, 255, 1)&quot;&gt;SELECT&lt;/span&gt;&lt;span style=&quot;color: rgba(0, 0, 0, 1)&quot;&gt; b, a&#xa;&lt;/span&gt;&lt;span style=&quot;color: rgba(0, 0, 255, 1)&quot;&gt;FROM&lt;/span&gt;&lt;span style=&quot;color: rgba(0, 0, 0, 1)&quot;&gt; c&#xa;&lt;/span&gt;&lt;span style=&quot;color: rgba(0, 0, 255, 1)&quot;&gt;WHERE&lt;/span&gt; a &lt;span style=&quot;color: rgba(128, 128, 128, 1)&quot;&gt;=&lt;/span&gt;&lt;span style=&quot;color: rgba(0, 0, 0, 1)&quot;&gt; ?&#xa;&lt;/span&gt;&lt;span style=&quot;color: rgba(128, 128, 128, 1)&quot;&gt;AND&lt;/span&gt; b &lt;span style=&quot;color: rgba(128, 128, 128, 1)&quot;&gt;=&lt;/span&gt;&lt;span style=&quot;color: rgba(0, 0, 0, 1)&quot;&gt; ?&#xa;&lt;/span&gt;&lt;span style=&quot;color: rgba(128, 128, 128, 1)&quot;&gt;AND&lt;/span&gt; a &lt;span style=&quot;color: rgba(128, 128, 128, 1)&quot;&gt;IN&lt;/span&gt; (?)&lt;/pre&gt;" style="text;whiteSpace=wrap;html=1;" vertex="1" parent="1">
          <mxGeometry x="310" y="70" width="110" height="120" as="geometry" />
        </mxCell>
        <mxCell id="zURV9CsW6-6Lo7girFdd-17" value="true" style="edgeStyle=orthogonalEdgeStyle;rounded=0;orthogonalLoop=1;jettySize=auto;html=1;exitX=1;exitY=0.5;exitDx=0;exitDy=0;" edge="1" parent="1" source="zURV9CsW6-6Lo7girFdd-39" target="zURV9CsW6-6Lo7girFdd-16">
          <mxGeometry relative="1" as="geometry" />
        </mxCell>
        <mxCell id="zURV9CsW6-6Lo7girFdd-37" style="edgeStyle=orthogonalEdgeStyle;rounded=0;orthogonalLoop=1;jettySize=auto;html=1;entryX=0;entryY=0.5;entryDx=0;entryDy=0;" edge="1" parent="1" source="zURV9CsW6-6Lo7girFdd-15" target="zURV9CsW6-6Lo7girFdd-36">
          <mxGeometry relative="1" as="geometry">
            <Array as="points">
              <mxPoint x="680" y="300" />
            </Array>
          </mxGeometry>
        </mxCell>
        <mxCell id="zURV9CsW6-6Lo7girFdd-40" style="edgeStyle=orthogonalEdgeStyle;rounded=0;orthogonalLoop=1;jettySize=auto;html=1;exitX=1;exitY=0.5;exitDx=0;exitDy=0;entryX=0;entryY=0.5;entryDx=0;entryDy=0;" edge="1" parent="1" source="zURV9CsW6-6Lo7girFdd-15" target="zURV9CsW6-6Lo7girFdd-39">
          <mxGeometry relative="1" as="geometry" />
        </mxCell>
        <mxCell id="zURV9CsW6-6Lo7girFdd-15" value="解析SQL语句,生产语法树" style="rounded=1;whiteSpace=wrap;html=1;" vertex="1" parent="1">
          <mxGeometry x="620" y="90" width="120" height="60" as="geometry" />
        </mxCell>
        <mxCell id="zURV9CsW6-6Lo7girFdd-23" value="" style="edgeStyle=orthogonalEdgeStyle;rounded=0;orthogonalLoop=1;jettySize=auto;html=1;" edge="1" parent="1" source="zURV9CsW6-6Lo7girFdd-16" target="zURV9CsW6-6Lo7girFdd-22">
          <mxGeometry relative="1" as="geometry" />
        </mxCell>
        <mxCell id="zURV9CsW6-6Lo7girFdd-24" value="true" style="edgeLabel;html=1;align=center;verticalAlign=middle;resizable=0;points=[];" vertex="1" connectable="0" parent="zURV9CsW6-6Lo7girFdd-23">
          <mxGeometry x="0.2187" y="-2" relative="1" as="geometry">
            <mxPoint x="-11" y="-2" as="offset" />
          </mxGeometry>
        </mxCell>
        <mxCell id="zURV9CsW6-6Lo7girFdd-16" value="是否包含去重算子" style="whiteSpace=wrap;html=1;rounded=1;" vertex="1" parent="1">
          <mxGeometry x="1010" y="90" width="120" height="60" as="geometry" />
        </mxCell>
        <mxCell id="zURV9CsW6-6Lo7girFdd-28" value="" style="edgeStyle=orthogonalEdgeStyle;rounded=0;orthogonalLoop=1;jettySize=auto;html=1;" edge="1" parent="1" source="zURV9CsW6-6Lo7girFdd-20" target="zURV9CsW6-6Lo7girFdd-27">
          <mxGeometry relative="1" as="geometry" />
        </mxCell>
        <mxCell id="zURV9CsW6-6Lo7girFdd-20" value="SQL模板分类，怎样的SQL模板可以使用一个指纹？" style="rounded=0;whiteSpace=wrap;html=1;" vertex="1" parent="1">
          <mxGeometry x="20" y="510" width="120" height="60" as="geometry" />
        </mxCell>
        <mxCell id="zURV9CsW6-6Lo7girFdd-26" value="false" style="edgeStyle=orthogonalEdgeStyle;rounded=0;orthogonalLoop=1;jettySize=auto;html=1;" edge="1" parent="1" source="zURV9CsW6-6Lo7girFdd-22" target="zURV9CsW6-6Lo7girFdd-25">
          <mxGeometry relative="1" as="geometry" />
        </mxCell>
        <mxCell id="zURV9CsW6-6Lo7girFdd-22" value="是否存在子查询" style="whiteSpace=wrap;html=1;rounded=1;" vertex="1" parent="1">
          <mxGeometry x="1190" y="90" width="120" height="60" as="geometry" />
        </mxCell>
        <mxCell id="zURV9CsW6-6Lo7girFdd-25" value="将解析结果写入缓存" style="whiteSpace=wrap;html=1;rounded=1;" vertex="1" parent="1">
          <mxGeometry x="1370" y="90" width="120" height="60" as="geometry" />
        </mxCell>
        <mxCell id="zURV9CsW6-6Lo7girFdd-27" value="都满足Select语句、去重算子、都不是子查询" style="whiteSpace=wrap;html=1;rounded=0;" vertex="1" parent="1">
          <mxGeometry x="220" y="510" width="120" height="60" as="geometry" />
        </mxCell>
        <mxCell id="zURV9CsW6-6Lo7girFdd-35" value="&lt;h1&gt;技术选型&lt;/h1&gt;&lt;p&gt;SQL指纹使用druid的模板解析&lt;/p&gt;&lt;p&gt;缓存使用本地缓存Caffeine或使用分布式缓存Redis&lt;/p&gt;&lt;h1 style=&quot;box-sizing: border-box; break-after: avoid-page; break-inside: avoid; orphans: 4; font-size: 2.25em; margin-top: 1rem; margin-bottom: 1rem; color: rgb(201, 209, 217); font-family: Nunito, sans-serif; padding-top: 20px; position: relative; line-height: 1.2; cursor: text; padding-bottom: 0.3em; border-bottom: 1px solid var(--color-border-secondary); text-align: justify;&quot; class=&quot;md-end-block md-heading md-focus&quot;&gt;&lt;br&gt;&lt;/h1&gt;" style="text;html=1;strokeColor=none;fillColor=none;spacing=5;spacingTop=-20;whiteSpace=wrap;overflow=hidden;rounded=0;" vertex="1" parent="1">
          <mxGeometry x="10" y="600" width="190" height="120" as="geometry" />
        </mxCell>
        <mxCell id="zURV9CsW6-6Lo7girFdd-42" style="edgeStyle=orthogonalEdgeStyle;rounded=0;orthogonalLoop=1;jettySize=auto;html=1;entryX=0.5;entryY=1;entryDx=0;entryDy=0;" edge="1" parent="1" source="zURV9CsW6-6Lo7girFdd-36" target="zURV9CsW6-6Lo7girFdd-25">
          <mxGeometry relative="1" as="geometry">
            <mxPoint x="1315" y="300" as="targetPoint" />
          </mxGeometry>
        </mxCell>
        <mxCell id="zURV9CsW6-6Lo7girFdd-36" value="处理模板变成指纹" style="rounded=0;whiteSpace=wrap;html=1;" vertex="1" parent="1">
          <mxGeometry x="970" y="230" width="250" height="140" as="geometry" />
        </mxCell>
        <mxCell id="zURV9CsW6-6Lo7girFdd-38" value="需要了解解析SQL语句的逻辑" style="rounded=0;whiteSpace=wrap;html=1;" vertex="1" parent="1">
          <mxGeometry x="20" y="400" width="120" height="60" as="geometry" />
        </mxCell>
        <mxCell id="zURV9CsW6-6Lo7girFdd-39" value="是否是Select语句" style="rounded=1;whiteSpace=wrap;html=1;" vertex="1" parent="1">
          <mxGeometry x="810" y="90" width="120" height="60" as="geometry" />
        </mxCell>
      </root>
    </mxGraphModel>
  </diagram>
</mxfile>
